<svg width="553" height="769" viewBox="0 0 553 769" fill="none" xmlns="http://www.w3.org/2000/svg">
<g filter="url(#filter0_n_35_76)">
<path d="M80.6826 90.5039C80.6826 78.3536 90.5324 68.5039 102.683 68.5039H463.022C475.173 68.5039 485.022 78.3536 485.022 90.5039V687.828C485.022 699.978 475.173 709.828 463.022 709.828H102.683C90.5324 709.828 80.6826 699.978 80.6826 687.828V90.5039Z" fill="#FBF4D8"/>
<path d="M102.784 59.7407C116.387 58.676 129.973 58.221 143.966 58.6848C147.154 58.7896 146.854 59.6125 148.165 59.7456C150.574 59.9914 154.617 59.1035 155.184 59.1035C158.701 59.0922 157.327 60.5324 157.8 60.5879C163.078 61.1726 161.559 59.5321 166.605 59.3745C173.177 59.1688 181.609 59.4623 189.527 59.5429C192.307 59.5752 191.069 60.6717 197.071 60.5793C201.322 60.5148 214.363 59.2651 220.368 60.6001C220.404 61.1042 219.645 61.6607 219.326 62.181C227.934 60.08 231.015 60.1722 243.219 60.6843C245.15 60.765 246.978 59.9018 250.379 60.2204C253.779 60.5393 253.922 61.8699 260.759 61.8538C263.184 61.8449 264.655 60.9065 268.373 60.8662C278.949 60.7493 299.089 61.9148 307.769 61.9551C324.862 62.0357 334.163 60.4343 349.343 60.9907C350.512 61.0311 347.944 62.0594 350.087 62.0796C352.248 62.0998 354.499 60.7373 355.03 60.7051C360.768 60.3544 372.895 62.1796 376.087 61.9588C383.846 61.4183 376.2 60.8179 386.952 60.5598C397.191 60.3142 411.326 62.088 421.476 62.4349C433.236 62.8379 437.029 60.2613 445.885 62.9512C451.594 62.9224 457.307 62.8956 463.022 62.8702C477.734 62.4621 491.102 75.6918 490.797 90.5039C490.851 104.434 490.904 118.366 490.966 132.28C490.43 132.191 489.893 132.089 489.357 131.982C489.728 134.445 490.099 136.907 490.466 139.37C490.067 138.998 489.668 138.645 489.273 138.273C490.813 149.838 491.607 160.145 491.184 173.658C491.176 173.922 490.107 173.227 490.08 173.446C489.878 176.493 490.7 179.898 490.507 182.573C490.043 189.038 487.712 200.02 490.563 195.185C489.974 210.258 490.938 227.971 490.386 242.336C490.148 248.552 488.458 250.415 488.361 253.389C488.264 256.362 489.716 254.849 489.772 255.904C490.095 262.245 490.035 272.681 488.41 273.781C489.059 275.056 489.716 276.405 490.369 277.697C488.567 276.94 489.312 296.535 489.268 301.676C489.26 302.615 488.47 302.746 488.478 303.455C488.579 311.351 489.817 313.282 490.228 320.047C490.374 322.42 488.982 318.739 489.583 324.833C489.635 325.364 490.886 325.082 490.878 332.361C490.866 343.981 491.362 366.211 490.745 380.045C490.696 381.178 489.333 377.727 489.651 382.912C489.764 384.79 490.732 383.89 490.74 388.443C490.78 406.086 489.667 424.898 490.591 442.895C489.498 442.239 488.272 435.829 488.958 445.464C489.071 447.004 490.047 445.855 490.083 446.546C490.365 452.142 489.668 456.994 490.043 463.051C490.156 464.84 490.922 465.284 491.104 467.516C491.374 470.811 490.281 472.268 490.745 476.094C491.475 482.078 492.511 483.002 490.479 490.422C490.608 532.473 491.18 574.33 490.285 616.24C490.865 628.356 491.514 639.536 491.736 652.165C491.801 655.885 490.413 656.596 490.873 662.529C490.974 663.858 492.463 673.337 489.66 674.718C489.901 677.357 489.91 679.024 490.059 681.291C490.47 679.573 490.886 677.799 491.301 676.152C491.107 680.309 491.184 684.135 491.371 687.828C491.617 693.98 490.058 700.156 486.442 705.416C481.254 711.896 484.357 706.762 480.773 710.188C476.935 713.187 474.698 714.789 468.494 714.779C466.722 715.832 464.974 716.21 463.022 716.214C460.86 716.214 458.321 715.802 454.257 715.776C453.513 715.772 449.211 716.416 445.616 716.288C443.031 716.195 442.265 715.159 438.158 715.32C437.485 715.344 428.803 716.627 426.04 716.744C421.735 716.93 414.895 715.602 414.062 715.586C401.965 715.352 397.303 716.663 388.712 714.505C386.976 715.788 379.808 716.538 374.016 716.413C366.7 716.256 352.031 713.634 350.029 716.405C341.563 715.171 342.482 715.932 332.442 715.957C323.303 715.981 299.106 714.921 291.699 715.074C284.295 715.223 287.903 716.764 284.962 716.97C280.149 717.312 282.749 716.175 279.455 716.191C270.138 716.24 262.041 716.457 253.149 716.953C252.671 716.155 252.157 715.352 251.661 714.554C251.201 714.82 250.743 715.086 250.282 715.352C248.369 715.344 246.225 715.361 244.454 715.337C259.401 718.841 230.017 715.077 221.196 714.989C213.756 714.916 201.372 716.578 193.206 716.937C191.224 717.025 192.586 716.163 192.18 716.183C187.397 716.429 186.671 717.018 180.241 716.937C176.84 716.893 173.369 715.812 170.057 715.792C147.276 715.656 125.239 716.6 102.683 716.816C100.685 716.831 98.6703 716.637 96.6921 716.229C91.2851 715.081 87.7651 711.575 84.5658 708.775C80.0525 704.633 76.9082 701.625 75.051 695.79C74.365 693.463 74.1186 690.581 74.3617 687.828C74.7107 684.61 75.1275 681.461 75.0091 679.58C74.8155 676.445 73.5652 681.81 73.908 676.07C74.0655 673.434 74.9966 678.09 75.025 674.833C75.1137 664.666 73.9606 650.318 75.0775 639.495C74.7993 639.973 74.5489 640.626 74.2828 641.21C74.3917 629.679 75.0612 619.491 75.158 607.588C75.194 603.425 74.3766 595.918 74.3804 591.827C74.3845 587.736 75.2714 585.874 75.296 582.598C75.3081 581.252 74.5132 581.778 74.5293 580.875C74.7393 569.576 76.1542 563.376 75.993 551.546C75.4042 508.2 74.8957 463.504 74.3633 419.485C74.3423 417.715 73.3068 416.523 73.1536 413.938C72.9165 409.957 73.8318 409.762 73.864 409.23C74.0655 405.76 73.2183 407.175 73.2183 402.517C73.2183 392.26 73.9689 375.715 73.9043 365.495C73.7551 341.936 72.9481 322.132 72.5408 299.033C72.5085 297.368 73.7344 298.497 73.7505 295.61C73.8794 275.26 72.7057 270.952 73.0364 245.623C73.3671 220.292 74.1097 172.481 74.2791 142.829C74.2819 142.829 74.2848 142.829 74.2876 142.829C72.0212 133.495 72.5849 121.418 74.2986 111.392C79.8885 169.21 77.4009 224.53 77.6227 286.28C77.8526 351.182 81.9142 420.371 81.3618 486.142C81.3094 492.324 80.0186 494.808 80.2888 500.015C80.3345 500.896 81.3293 498.616 81.4302 501.324C82.7853 538.522 80.518 578.184 81.147 614.709C81.3164 624.557 82.4256 626.102 82.712 634.763C82.1878 633.241 81.6397 632.245 81.1116 630.917C80.327 649.86 80.086 668.815 80.0219 687.828C79.6865 699.878 90.5812 710.798 102.683 710.491C111.899 710.484 121.135 710.486 130.395 710.54C132.201 710.553 132.432 711.638 134.327 711.678C138.117 711.763 141.748 710.569 145.06 710.528C149.382 710.476 150.13 711.339 154.115 711.283C156.061 711.254 155.479 710.424 159.709 710.565C160.063 710.577 160.295 711.447 163.109 711.335C170.813 711.025 186.561 710.294 192.939 710.076C201.086 709.798 207.623 711.109 210.706 711.195C219.03 711.424 218.857 710.082 225.904 710.081C276.069 710.073 324.027 711.601 375.379 711.589C378.605 711.588 390.537 710.093 396.507 710.153C398.507 710.178 408.969 710.572 410.537 710.605C416.896 710.73 422.391 711.634 425.899 711.823C432.7 712.194 440.301 710.783 444.002 710.642C449.537 710.429 458.728 710.532 463.022 710.589C463.801 710.599 464.418 710.57 464.839 710.542C471.529 709.591 469.966 711.614 474.534 709.134C475.753 708.212 473.98 708.128 477.958 704.993C481.078 702.145 482.827 701.167 484.447 698.536C486.195 695.813 485.71 690.002 485.625 688.3C485.632 688.142 485.637 687.984 485.642 687.828C485.882 678.972 486.87 674.882 486.921 665.059C486.962 656.764 486.247 618.417 485.88 615.229C484.24 600.951 484.976 624.73 484.921 626.071C484.602 633.316 483.973 632.256 485.175 639.482C481.468 645.948 487.239 668.481 482.843 674.256C485.175 679.01 484.713 683.159 484.131 687.828C483.982 688.977 483.735 690.129 483.417 691.295C482.214 695.2 481.932 695.575 482.214 695.931C482.396 696.237 482.981 696.421 481.422 699.125C480.281 701.479 474.309 705.386 471.111 706.613C468.29 707.911 466.933 709.176 463.022 709.492C462.581 709.516 462.11 709.531 461.605 709.537C452.626 709.642 445.398 709.166 437.853 707.944C436.472 708.484 435.182 709.025 433.819 709.565C428.611 708.984 423.382 708.407 418.175 707.83C419.007 708.302 419.841 708.778 420.674 709.25C419.15 709.319 417.622 709.383 416.099 709.448C411.033 708.738 406.195 708.081 400.987 707.347C386.837 710.076 390.944 707.714 383.08 707.359C375.217 707.005 370.666 708.585 364.592 708.593C356.409 708.605 352.65 708.803 344.397 708.69C339.614 708.625 331.501 707.1 338.161 709.516C323.228 709.71 302.784 710.384 289.427 709.404C285.484 709.118 290.742 708.357 290.07 708.262C286.723 707.815 283.903 709.048 280.45 708.872C274.711 708.577 263.535 707.617 259.017 707.391C252.516 707.064 242.295 708.662 241.25 708.779C235.407 709.428 233.844 708.101 231.967 708.193C221.286 708.725 218.929 709.282 215.563 706.484C212.798 707.694 201.214 709.73 198.415 707.694C198.343 709.532 188.727 709.222 182.81 709.682C181.712 709.15 180.595 708.621 179.497 708.084C167.151 711.375 142.565 708.985 126.321 708.593C125.914 708.585 125.186 709.963 122.741 709.653C122.586 709.627 122.838 709.008 121.198 708.928C118.02 708.776 109.578 708.178 102.683 707.709C98.2663 707.403 95.0628 705.569 94.3168 705.205C87.7657 701.413 86.4291 700.256 84.044 696.02C82.3813 692.211 82.6612 690.168 82.8235 687.828C82.9526 686.348 83.0431 684.68 82.9952 682.275C82.9347 679.158 81.7128 676.322 81.8855 671.417C81.9863 668.513 82.9459 668.226 83.0232 665.926C83.3015 657.742 82.696 651.732 83.9461 644.469C80.8937 642.574 83.1436 639.103 83.3736 635.507C84.3133 620.912 83.0234 602.721 83.3016 590.197C84.1767 551.122 86.0593 516.472 86.4828 478.3C86.5514 472.1 85.0188 470.607 85.1156 464.106C85.1605 461.183 86.2701 458.171 86.2863 453.389C86.3022 449.546 85.7381 444.04 85.7418 439.241C85.7418 437.966 86.7824 437.852 86.7904 435.975C86.8508 421.734 86.112 407.828 85.6039 393.445C85.4148 388.115 86.7935 384.818 84.3941 385.721C84.9829 383.684 85.4956 381.704 86.0763 379.791C84.5639 372.458 86.14 366.468 85.7528 356.548C85.7067 355.479 84.0478 347.989 85.245 343.74C84.3902 343.44 83.6643 344.099 82.8902 343.975C82.5635 339.778 83.5508 333.328 83.6519 330.494C83.7526 327.663 82.6422 325.768 82.6314 324.916C82.6032 321.674 84.0635 322.43 84.0877 322.182C85.487 307.074 84.709 308.665 82.5191 299.542C81.9667 297.257 83.571 281.748 81.8416 278.611C82.547 278.47 83.1679 279.334 83.8411 279.582C84.0226 274.923 84.209 270.228 84.3905 265.552C83.7129 266.544 83.0347 267.735 82.3531 268.638C82.9418 259.092 81.3453 251.154 81.3972 243.343C81.4295 238.879 82.9263 239.424 82.5996 236.802C82.5349 236.289 81.5235 237.156 81.4424 235.635C80.785 223.218 81.8535 217.777 82.0552 205.342C82.1515 199.515 80.3132 194.415 81.523 186.055C81.6362 185.292 83.2686 177.091 80.9297 172.025C81.6677 170.413 82.0554 168.992 82.6766 167.787C79.204 157.531 82.6072 160.365 83.4139 146.495C83.833 139.318 83.2246 115.177 82.8536 107.366C82.6275 102.713 81.2626 102.798 81.208 101.968C80.8935 97.0088 82.2164 97.005 81.999 92.4188C81.9697 91.8005 81.9171 91.1605 81.8485 90.5039C81.3223 86.5739 81.7704 81.3245 84.2969 77.95C86.6204 75.1378 85.8974 78.2069 89.1861 74.3051C89.9911 73.5851 86.4778 74.2169 91.487 71.4969C91.8839 71.3014 94.2545 70.4084 96.7747 70.152C99.2984 69.8413 101.847 70.191 102.683 70.3684C100.515 70.7538 96.4121 71.8519 93.2188 74.3083C89.9512 76.6787 87.8652 80.1056 87.0738 82.0152C85.9253 84.6229 85.3919 87.5452 85.6194 90.5039C91.0531 182.341 91.0826 350.866 90.3428 441.897C90.274 450.699 88.8382 456.455 88.7131 462.194C88.5881 467.933 89.9036 463.081 89.7947 468.289C89.6817 473.497 88.7535 477.291 88.6728 482.162C88.1243 515.002 87.5438 548.09 87.2897 580.664C87.2252 589.113 88.2944 595.866 88.2944 603.554C88.2937 606.545 86.9151 606.638 86.9272 608.763C87.0362 631.666 88.3629 652.853 88.2016 675.632C88.1728 679.603 87.9513 683.708 87.696 687.828C87.3057 691.721 88.5666 695.917 91.28 698.794C94.2227 702 98.776 703.323 102.683 703.046C104.383 702.979 106.043 702.934 107.646 702.93C111.415 702.918 113.403 703.968 114.767 704.051C119.514 704.325 117.855 703.043 120.282 703.043C126.976 703.047 130.306 704.595 136.576 704.474C139.037 704.426 138.72 703.439 142.294 703.285C146.828 703.092 145.151 704.002 148.389 704.035C148.584 704.039 147.949 703.333 149.666 703.305C160.719 703.119 174.52 702.563 185.184 702.612C207.237 702.708 229.006 704.068 249.554 704.334C254.744 704.399 253.366 703.479 255.014 703.434C262.948 703.225 265.782 704.325 274.089 703.93C275.471 703.865 281.035 702.592 286.349 702.914C289.218 703.088 292.475 703.882 294.919 704.068C297.362 704.253 297.755 703.084 300.692 703.083C306.042 703.079 304.486 703.89 312.137 703.744C315.219 703.688 325.51 702.58 333.445 702.664C346.412 702.801 362.481 703.814 377.768 703.83C383.012 703.838 389.747 702.636 397.877 702.624C407.815 702.608 426.125 702.881 436.31 702.897C441.518 702.905 441.894 704.164 442.514 704.217C446.496 704.567 444.888 703.16 447.559 703.216C451.226 703.293 454.648 704.33 457.978 704.399C460.102 704.443 460.439 703.406 460.9 703.398C461.611 703.383 462.318 703.37 463.022 703.357C471.58 703.229 478.445 695.893 478.289 687.828C478.277 683.788 478.262 679.691 478.233 675.478C477.637 584.66 476.306 492.973 476.907 402.332C476.955 394.733 478.262 394.447 478.056 387.769C477.855 381.091 475.032 374.64 478.149 369.148C477.52 368.971 477.072 368.989 476.499 368.811C477.386 355.013 476.468 341.213 476.355 327.716C476.27 317.726 476.37 308.868 476.439 299.64C476.504 291.46 477.6 292.166 476.169 285.085C477.065 249.887 476.847 214.312 478.335 179.416C475.992 171.232 477.468 163.387 477.815 152.068C477.859 150.671 477.004 152.17 477.076 148.026C477.166 142.821 478.472 140.127 478.399 131.363C478.379 129.043 476.931 111.856 477.673 105.497C478.171 101.233 478.53 95.6871 478.927 90.5039C479.125 88.6437 478.997 86.8176 478.692 85.1958C478.39 86.0434 478.086 87.0013 477.666 87.7943C477.173 85.6243 476.182 83.5854 474.805 81.8768C475.16 81.222 475.48 80.5367 475.775 79.8343C474.354 79.1359 472.899 78.6784 471.468 78.466C471.269 76.2405 471.432 75.7136 471.064 75.4563C470.66 75.2552 469.586 74.9678 466.177 74.6509C465.06 74.5763 464.037 74.5189 463.022 74.5078C460.172 74.487 457.453 74.29 454.244 74.5263C452.527 74.6552 451.429 75.6741 449.536 75.8044C444.896 76.1189 447.6 74.7166 444.734 74.724C441.846 74.7361 437.701 76.2764 432.529 75.5908C437.929 72.8448 422.321 73.7406 421.577 75.874C419.719 75.8779 418.162 75.7892 416.109 75.8496C418.005 70.4613 408.275 74.2851 404.414 75.0231C400.555 75.7601 400.711 74.3123 399.808 74.3688C397.205 74.5262 399.1 75.1273 397.277 75.1476C385.196 75.2686 373.822 74.3848 361.9 74.3041C360.185 74.2926 361.706 75.1108 359.707 75.0304C357.705 74.9498 355.787 74.1353 352.829 74.1918C352.035 74.2061 351.786 74.9248 350.549 74.9255C324.634 74.8932 300.027 74.2809 273.598 74.1881C271.207 74.1801 269.33 75.4579 264.707 75.4138C260.085 75.3694 253.071 74.2162 247.332 74.1271C245.808 74.1029 245.395 75.1673 243.376 75.1391C236.504 75.0421 230.585 74.1755 223.447 74.0343C211.386 73.7966 198.757 74.4459 186.519 73.817C184.199 73.7001 184.569 72.8123 181.223 72.5621C175.448 72.1306 177.621 73.4251 176.452 73.5985C172.628 74.1587 171.426 72.4382 167.726 72.8807C167.16 72.9492 167.967 73.9695 167.459 73.9855C159.594 74.1629 159.181 71.7715 150.82 73.0541C143.385 71.6791 155.804 71.2107 157.08 70.4808C160.194 68.7065 151.961 66.6215 147.107 65.9518C142.928 65.3752 142.959 66.4799 141.295 66.4804C132.492 66.4844 119.382 66.6945 112.686 66.1703C108.629 65.8557 115.941 65.3956 113.869 65.0326C111.815 64.6701 110.485 65.5003 108.377 64.5931C106.269 63.6857 101.969 61.0152 102.784 59.7407ZM487.841 435.257C483.485 421.759 483.94 385.963 484.355 366.743C484.702 350.801 488.058 337.057 483.195 340.352C483.162 357.585 483.65 371.525 483.501 389.751C483.485 391.646 483.034 402.951 482.953 406.883C482.908 409.097 482.105 409.168 482.113 412.179C482.117 412.834 483.167 416.467 483.138 417.796C483.045 422.347 481.434 435.882 481.481 437.772C481.618 443.012 482.866 441.001 483.093 443.263C483.843 450.862 481.968 451.7 482.577 459.228C482.686 460.575 484.32 465.039 484.106 470.619C484.018 472.886 483.174 476.748 483.214 478.484C483.432 487.943 484.55 498.501 484.364 507.163C484.211 514.264 482.949 512.354 482.779 516.109C482.615 519.864 484.078 524.398 484.163 526.967C484.295 531.076 483.464 536.071 483.477 537.346C483.723 562.464 484.686 584.801 485.033 609.033C485.61 592.577 486.139 576.139 486.736 559.79C485.429 550.508 486.654 555.129 487.062 549.018C487.384 544.183 485.171 543.013 485.416 536.657C485.416 536.662 485.416 536.667 485.416 536.672C485.545 533.396 487.078 526.292 486.437 519.313C486.412 519.065 485.264 518.443 485.223 513.218C485.135 501.475 484.545 483.48 484.791 470.266C484.864 466.387 486.07 467.177 486.22 462.589C486.327 459.242 485.212 455.366 485.461 450.126C485.78 443.554 487.699 440.401 485.033 435.884C485.985 435.512 486.913 435.7 487.841 435.257ZM478.224 73.9169C477.95 73.5561 475.805 70.6957 473.219 69.1243C470.663 67.5122 468.331 67.0989 469.743 69.1271C478.285 72.478 484.636 81.1487 484.441 90.5039C484.36 98.5555 484.312 106.683 483.956 114.709C486.738 109.423 486.086 100.898 485.74 90.5039C485.696 89.1161 485.531 87.7044 485.238 86.292C485.237 86.2867 485.236 86.2815 485.235 86.2762C485.095 85.6808 486.448 88.0256 485.551 84.6578C485.16 82.9233 481.681 77.5476 478.224 73.9169Z" fill="#BFB903"/>
</g>
<g filter="url(#filter1_i_35_76)">
<path d="M77.7002 17.2554L99.0348 63.8173L144.886 40.9952L107.196 75.674L143.07 112.229L98.4412 87.0994L74.7613 132.513L84.8697 82.304L34.3608 73.8168L85.2366 67.9148L77.7002 17.2554Z" fill="#FFEA63"/>
</g>
<path d="M98.1258 64.2341L98.5564 65.1729L99.48 64.7122L139.024 45.0294L106.518 74.9383L105.759 75.6374L106.482 76.3742L137.421 107.901L98.932 86.2281L98.0317 85.7213L97.5549 86.6371L77.1325 125.802L85.8503 82.5011L86.054 81.4891L85.0354 81.3179L41.4734 73.998L85.3516 68.9078L86.3779 68.7894L86.2254 67.7681L79.7261 24.0782L98.1258 64.2341Z" stroke="#917D2C" stroke-width="2"/>
<g filter="url(#filter2_i_35_76)">
<path d="M460.162 303.348L481.497 349.91L527.348 327.088L489.658 361.767L525.532 398.321L480.903 373.192L457.223 418.606L467.332 368.397L416.823 359.91L467.698 354.008L460.162 303.348Z" fill="#FFEA63"/>
</g>
<path d="M480.588 350.327L481.018 351.266L481.942 350.805L521.486 331.122L488.98 361.031L488.221 361.73L488.944 362.467L519.883 393.993L481.394 372.321L480.494 371.814L480.017 372.73L459.594 411.894L468.312 368.594L468.516 367.582L467.497 367.411L423.935 360.091L467.813 355.001L468.84 354.882L468.687 353.861L462.188 310.171L480.588 350.327Z" stroke="#917D2C" stroke-width="2"/>
<g filter="url(#filter3_i_35_76)">
<path d="M58.1065 634.721L79.4411 681.283L125.292 658.461L87.602 693.14L123.476 729.694L78.8474 704.565L55.1676 749.979L65.2759 699.77L14.7671 691.283L65.6428 685.381L58.1065 634.721Z" fill="#FFEA63"/>
</g>
<path d="M78.5321 681.7L78.9626 682.639L79.8863 682.178L119.43 662.495L86.9246 692.404L86.1654 693.103L86.8885 693.84L117.827 725.366L79.3383 703.694L78.438 703.187L77.9612 704.103L57.5388 743.268L66.2565 699.967L66.4603 698.955L65.4416 698.784L21.8797 691.464L65.7578 686.374L66.7842 686.255L66.6317 685.234L60.1324 641.544L78.5321 681.7Z" stroke="#917D2C" stroke-width="2"/>
<defs>
<filter id="filter0_n_35_76" x="72.54" y="58.5039" width="419.198" height="658.53" filterUnits="userSpaceOnUse" color-interpolation-filters="sRGB">
<feFlood flood-opacity="0" result="BackgroundImageFix"/>
<feBlend mode="normal" in="SourceGraphic" in2="BackgroundImageFix" result="shape"/>
<feTurbulence type="fractalNoise" baseFrequency="0.3125 0.3125" stitchTiles="stitch" numOctaves="3" result="noise" seed="9537" />
<feComponentTransfer in="noise" result="coloredNoise1">
<feFuncR type="linear" slope="2" intercept="-0.5" />
<feFuncG type="linear" slope="2" intercept="-0.5" />
<feFuncB type="linear" slope="2" intercept="-0.5" />
<feFuncA type="discrete" tableValues="0 0 0 0 0 0 0 0 0 0 0 0 0 0 0 0 0 0 1 1 1 1 1 1 1 1 1 1 1 1 1 1 0 0 0 0 0 0 0 0 0 0 0 0 0 0 0 0 0 0 0 0 0 0 0 0 0 0 0 0 0 0 0 0 0 0 0 0 0 0 0 0 0 0 0 0 0 0 0 0 0 0 0 0 0 0 0 0 0 0 0 0 0 0 0 0 0 0 0 0 "/>
</feComponentTransfer>
<feComposite operator="in" in2="shape" in="coloredNoise1" result="noise1Clipped" />
<feComponentTransfer in="noise1Clipped" result="color1">
<feFuncA type="table" tableValues="0 0.12" />
</feComponentTransfer>
<feMerge result="effect1_noise_35_76">
<feMergeNode in="shape" />
<feMergeNode in="color1" />
</feMerge>
</filter>
<filter id="filter1_i_35_76" x="34.3608" y="17.2559" width="110.525" height="121.958" filterUnits="userSpaceOnUse" color-interpolation-filters="sRGB">
<feFlood flood-opacity="0" result="BackgroundImageFix"/>
<feBlend mode="normal" in="SourceGraphic" in2="BackgroundImageFix" result="shape"/>
<feColorMatrix in="SourceAlpha" type="matrix" values="0 0 0 0 0 0 0 0 0 0 0 0 0 0 0 0 0 0 127 0" result="hardAlpha"/>
<feOffset dy="6.69971"/>
<feGaussianBlur stdDeviation="3.34986"/>
<feComposite in2="hardAlpha" operator="arithmetic" k2="-1" k3="1"/>
<feColorMatrix type="matrix" values="0 0 0 0 0 0 0 0 0 0 0 0 0 0 0 0 0 0 0.25 0"/>
<feBlend mode="normal" in2="shape" result="effect1_innerShadow_35_76"/>
</filter>
<filter id="filter2_i_35_76" x="416.823" y="303.349" width="110.525" height="121.958" filterUnits="userSpaceOnUse" color-interpolation-filters="sRGB">
<feFlood flood-opacity="0" result="BackgroundImageFix"/>
<feBlend mode="normal" in="SourceGraphic" in2="BackgroundImageFix" result="shape"/>
<feColorMatrix in="SourceAlpha" type="matrix" values="0 0 0 0 0 0 0 0 0 0 0 0 0 0 0 0 0 0 127 0" result="hardAlpha"/>
<feOffset dy="6.69971"/>
<feGaussianBlur stdDeviation="3.34986"/>
<feComposite in2="hardAlpha" operator="arithmetic" k2="-1" k3="1"/>
<feColorMatrix type="matrix" values="0 0 0 0 0 0 0 0 0 0 0 0 0 0 0 0 0 0 0.25 0"/>
<feBlend mode="normal" in2="shape" result="effect1_innerShadow_35_76"/>
</filter>
<filter id="filter3_i_35_76" x="14.7671" y="634.722" width="110.525" height="121.958" filterUnits="userSpaceOnUse" color-interpolation-filters="sRGB">
<feFlood flood-opacity="0" result="BackgroundImageFix"/>
<feBlend mode="normal" in="SourceGraphic" in2="BackgroundImageFix" result="shape"/>
<feColorMatrix in="SourceAlpha" type="matrix" values="0 0 0 0 0 0 0 0 0 0 0 0 0 0 0 0 0 0 127 0" result="hardAlpha"/>
<feOffset dy="6.69971"/>
<feGaussianBlur stdDeviation="3.34986"/>
<feComposite in2="hardAlpha" operator="arithmetic" k2="-1" k3="1"/>
<feColorMatrix type="matrix" values="0 0 0 0 0 0 0 0 0 0 0 0 0 0 0 0 0 0 0.25 0"/>
<feBlend mode="normal" in2="shape" result="effect1_innerShadow_35_76"/>
</filter>
</defs>
</svg>
